<svg width="1000" height="278" viewBox="0 0 1000 278" fill="none" xmlns="http://www.w3.org/2000/svg">
<path d="M982.61 128.812C973.097 128.812 965.341 121.087 965.341 111.585C965.341 102.082 973.097 94.3381 982.61 94.3381C992.123 94.3381 999.885 102.069 999.885 111.585C999.885 121.101 992.156 128.812 982.61 128.812ZM982.61 97.7608C975.008 97.7608 968.762 103.954 968.762 111.585C968.762 119.216 975.008 125.416 982.61 125.416C990.212 125.416 996.485 119.209 996.485 111.585C996.485 103.96 990.279 97.7608 982.61 97.7608Z" fill="white"/>
<path d="M985.436 119.882L981.688 114.308H978.649V119.882H974.847V102.469H982.837C984.901 102.469 986.518 102.975 987.64 103.98C988.816 104.999 989.39 106.411 989.39 108.209V108.262C989.39 109.667 989.05 110.819 988.362 111.691C987.7 112.604 986.778 113.243 985.663 113.656L989.918 119.882H985.436ZM985.502 108.409C985.502 107.596 985.262 106.964 984.714 106.544C984.186 106.124 983.458 105.931 982.483 105.931H978.642V110.912H982.53C983.505 110.912 984.233 110.719 984.748 110.266C985.255 109.82 985.496 109.221 985.496 108.455V108.409H985.502Z" fill="white"/>
<path d="M69.4895 184.308C67.5856 188.29 64.9469 191.633 61.6067 194.343C58.2666 197.013 54.3587 199.031 49.8495 200.376C45.3804 201.714 40.5906 202.367 35.4468 202.367H20.1823V229.709H0.114792V138.687H37.4041C42.8953 138.687 47.7852 139.446 52.0873 140.964C56.3894 142.489 60.0369 144.62 63.0296 147.397C66.0491 150.14 68.3471 153.45 69.9571 157.332C71.567 161.194 72.382 165.456 72.382 170.124V170.424C72.382 175.698 71.4 180.332 69.4961 184.308H69.4895ZM52.0072 170.517C52.0072 166.015 50.5576 162.599 47.6516 160.255C44.7257 157.918 40.7442 156.753 35.7073 156.753H20.1823V184.567H36.0948C41.1584 184.567 45.0463 183.249 47.8587 180.612C50.6177 177.968 52.0139 174.685 52.0139 170.763V170.51L52.0072 170.517Z" fill="white"/>
<path d="M126.112 229.702V222.144C123.673 224.828 120.761 226.998 117.34 228.557C113.967 230.162 109.832 230.981 104.962 230.981C101.662 230.981 98.562 230.534 95.6494 229.602C92.7302 228.703 90.1917 227.331 88.0273 225.534C85.8361 223.696 84.1393 221.478 82.8701 218.848C81.6209 216.164 80.9929 213.134 80.9929 209.672V209.392C80.9929 205.603 81.701 202.294 83.0705 199.537C84.4399 196.747 86.3839 194.449 88.8756 192.651C91.334 190.82 94.3067 189.448 97.7337 188.556C101.187 187.631 104.975 187.158 109.157 187.158C112.718 187.158 115.831 187.451 118.469 187.963C121.135 188.47 123.72 189.155 126.225 190.034V188.856C126.225 184.701 124.969 181.551 122.451 179.38C119.932 177.209 116.205 176.104 111.248 176.104C107.413 176.104 104.053 176.463 101.141 177.109C98.2013 177.755 95.1417 178.668 91.9419 179.893L86.9785 164.79C90.8063 163.185 94.8077 161.8 98.9896 160.795C103.151 159.723 108.208 159.217 114.12 159.217C124.983 159.217 132.899 161.887 137.849 167.154C142.812 172.441 145.291 179.806 145.291 189.262V229.715H126.125L126.112 229.702ZM126.486 201.614C124.749 200.822 122.825 200.223 120.687 199.737C118.563 199.257 116.292 199.004 113.84 199.004C109.598 199.004 106.238 199.836 103.793 201.455C101.381 203.126 100.152 205.497 100.152 208.626V208.893C100.152 211.576 101.161 213.634 103.138 215.132C105.142 216.597 107.754 217.336 111.001 217.336C115.677 217.336 119.445 216.184 122.257 213.96C125.089 211.689 126.492 208.746 126.492 205.117V201.608L126.486 201.614Z" fill="white"/>
<path d="M240.865 230.208H223.036L209.555 187.451L195.914 230.208H178.158L156.627 159.982H176.728L187.951 202.267L201.104 159.716H218.219L231.526 202.367L243.016 159.982H262.696L240.885 230.208H240.865Z" fill="white"/>
<path d="M434.179 229.702V138.68H454.273V229.702H434.179Z" fill="white"/>
<path d="M519.232 229.702V190.907C519.232 186.225 518.21 182.716 516.093 180.332C514.015 177.968 511.069 176.776 507.248 176.776C503.427 176.776 500.394 177.968 498.183 180.332C495.958 182.723 494.836 186.232 494.836 190.907V229.702H475.036V159.982H494.836V169.944C495.992 168.479 497.228 167.074 498.557 165.702C499.92 164.324 501.416 163.172 503.066 162.087C504.716 161.048 506.547 160.215 508.551 159.609C510.541 158.99 512.806 158.704 515.325 158.704C522.9 158.704 528.745 160.975 532.874 165.576C536.982 170.191 539.066 176.51 539.066 184.567V229.702H519.232Z" fill="white"/>
<path d="M605.515 218.555C604.166 221.385 602.282 223.702 599.837 225.54C597.418 227.331 594.573 228.71 591.306 229.609C588.039 230.541 584.532 230.987 580.798 230.987C575.841 230.987 570.771 230.148 565.614 228.463C560.43 226.779 555.493 224.102 550.803 220.446L559.294 207.448C563.129 210.211 566.916 212.309 570.711 213.7C574.485 215.086 578.019 215.771 581.346 215.771C584.205 215.771 586.323 215.305 587.665 214.326C589.008 213.394 589.709 212.129 589.709 210.591V210.331C589.709 209.292 589.289 208.373 588.507 207.568C587.712 206.822 586.643 206.143 585.327 205.577C583.958 205.017 582.415 204.464 580.678 203.945C578.948 203.406 577.104 202.86 575.207 202.267C572.762 201.548 570.297 200.715 567.838 199.737C565.346 198.711 563.135 197.433 561.098 195.834C559.147 194.216 557.517 192.245 556.221 189.901C554.979 187.557 554.337 184.701 554.337 181.311V181.051C554.337 177.509 555.025 174.352 556.341 171.609C557.698 168.899 559.508 166.588 561.826 164.697C564.131 162.779 566.803 161.347 569.909 160.382C573.002 159.43 576.329 158.957 579.896 158.957C584.325 158.957 588.848 159.683 593.397 161.114C597.966 162.546 602.148 164.524 605.983 167.008L598.434 180.685C594.94 178.668 591.52 177.116 588.233 175.937C584.953 174.745 582.027 174.173 579.502 174.173C576.977 174.173 575.227 174.626 574.017 175.551C572.808 176.47 572.227 177.615 572.227 179V179.247C572.227 180.212 572.588 181.038 573.383 181.777C574.178 182.496 575.207 183.216 576.509 183.855C577.819 184.507 579.308 185.16 580.985 185.733C582.708 186.365 584.512 186.978 586.423 187.571C588.841 188.35 591.333 189.289 593.858 190.381C596.376 191.453 598.648 192.791 600.618 194.363C602.636 195.901 604.313 197.812 605.609 200.07C606.898 202.314 607.573 205.037 607.573 208.26V208.506C607.573 212.429 606.858 215.758 605.522 218.575L605.515 218.555Z" fill="white"/>
<path d="M692.519 210.384C690.729 214.859 688.417 218.628 685.444 221.691C682.572 224.788 679.225 227.078 675.377 228.663C671.523 230.208 667.541 230.987 663.359 230.987C658.049 230.987 653.7 229.955 650.279 227.897C646.839 225.833 643.947 223.423 641.582 220.672V250.505H621.748V159.996H641.582V169.924C644.007 166.661 646.953 164.004 650.4 161.894C653.833 159.776 658.169 158.717 663.359 158.717C667.461 158.717 671.423 159.483 675.25 161.041C679.091 162.613 682.472 164.903 685.391 168C688.37 171.07 690.729 174.865 692.519 179.294C694.309 183.762 695.184 188.909 695.184 194.742V194.989C695.184 200.782 694.309 205.923 692.519 210.398V210.384ZM675.371 194.729C675.371 191.826 674.91 189.189 674.008 186.785C673.106 184.374 671.857 182.317 670.294 180.625C668.724 178.947 666.907 177.635 664.863 176.697C662.812 175.811 660.634 175.338 658.262 175.338C655.891 175.338 653.76 175.818 651.682 176.697C649.658 177.635 647.875 178.947 646.358 180.625C644.795 182.317 643.606 184.381 642.684 186.785C641.762 189.189 641.294 191.826 641.294 194.729V194.975C641.294 197.852 641.762 200.496 642.684 202.913C643.606 205.29 644.788 207.361 646.358 209.046C647.875 210.764 649.658 212.076 651.682 212.968C653.753 213.9 655.891 214.326 658.262 214.326C660.634 214.326 662.812 213.894 664.863 212.968C666.907 212.082 668.717 210.771 670.294 209.046C671.863 207.361 673.106 205.31 674.008 202.96C674.903 200.602 675.371 197.945 675.371 194.982V194.736V194.729Z" fill="white"/>
<path d="M710.182 148.922V131.362H731.084V148.922H710.182ZM710.723 229.702V159.982H730.55V229.702H710.723Z" fill="white"/>
<path d="M790.311 179.38C783.685 179.38 778.447 181.378 774.686 185.353C770.885 189.329 769.008 195.528 769.008 203.952V229.709H749.201V159.989H769.008V174.04C770.992 169.285 773.751 165.463 777.232 162.606C780.699 159.723 785.408 158.444 791.32 158.711V179.38H790.305H790.311Z" fill="white"/>
<path d="M868.865 199.257C868.811 199.95 868.745 200.769 868.705 201.721H820.039C820.967 206.262 822.951 209.652 825.937 211.956C828.93 214.233 832.658 215.392 837.107 215.392C840.42 215.392 843.366 214.833 845.952 213.707C848.59 212.588 851.256 210.764 854.075 208.247L865.418 218.249C862.091 222.331 858.096 225.514 853.393 227.818C848.737 230.122 843.193 231.24 836.793 231.24C831.642 231.24 826.772 230.401 822.303 228.663C817.828 226.919 813.92 224.448 810.713 221.245C807.42 218.036 804.921 214.233 803.051 209.838C801.234 205.503 800.345 200.602 800.345 195.242V194.982C800.345 190.034 801.187 185.36 802.877 180.938C804.581 176.523 806.959 172.661 809.972 169.358C813.018 166.055 816.652 163.472 820.887 161.561C825.089 159.643 829.785 158.711 834.922 158.711C840.714 158.711 845.764 159.723 850.02 161.8C854.275 163.898 857.816 166.701 860.655 170.211C863.467 173.733 865.578 177.749 866.941 182.297C868.23 186.865 868.905 191.599 868.905 196.527V196.773C868.905 197.772 868.905 198.571 868.872 199.257H868.865ZM844.943 178.641C842.398 175.931 839.091 174.546 834.916 174.546C830.741 174.546 827.367 175.891 824.795 178.588C822.203 181.291 820.546 184.874 819.731 189.395H849.626C848.991 184.967 847.455 181.371 844.936 178.634L844.943 178.641Z" fill="white"/>
<path d="M934.151 229.702V219.767C931.706 223.023 928.787 225.733 925.347 227.838C921.913 229.948 917.584 230.981 912.36 230.981C908.265 230.981 904.317 230.202 900.476 228.657C896.668 227.072 893.275 224.781 890.295 221.685C887.349 218.622 884.984 214.853 883.221 210.378C881.424 205.903 880.535 200.762 880.535 194.969V194.722C880.535 188.889 881.424 183.742 883.221 179.274C884.984 174.839 887.356 171.043 890.268 167.98C893.161 164.883 896.548 162.593 900.389 161.021C904.19 159.463 908.198 158.697 912.367 158.697C917.664 158.697 922.04 159.709 925.487 161.76C928.927 163.858 931.8 166.235 934.151 168.985V134.771H953.958V229.689H934.151V229.702ZM934.398 194.729C934.398 191.826 933.931 189.189 933.042 186.785C932.147 184.374 930.885 182.317 929.368 180.625C927.838 178.947 926.102 177.635 924.031 176.697C921.986 175.811 919.789 175.338 917.451 175.338C915.112 175.338 912.895 175.818 910.857 176.697C908.813 177.635 907.003 178.947 905.466 180.625C903.876 182.317 902.634 184.381 901.745 186.712C900.823 189.062 900.389 191.752 900.389 194.729V194.975C900.389 197.852 900.823 200.496 901.745 202.913C902.634 205.29 903.883 207.361 905.466 209.046C907.003 210.764 908.806 212.076 910.857 212.968C912.895 213.9 915.092 214.326 917.451 214.326C919.809 214.326 921.986 213.894 924.031 212.968C926.102 212.082 927.838 210.771 929.368 209.046C930.885 207.361 932.147 205.29 933.042 202.913C933.931 200.502 934.398 197.852 934.398 194.975V194.729Z" fill="white"/>
<path d="M377.537 277.727C382.621 276.482 385.687 271.427 384.445 266.393L366.174 270.841C367.416 275.876 372.493 278.965 377.53 277.727H377.537Z" fill="white"/>
<path d="M453.886 71.8107C450.365 89.6967 435.121 101.796 419.877 98.7929C404.652 95.7897 395.16 78.8293 398.707 60.9166C402.227 43.0172 417.512 30.9378 432.729 33.941C447.967 36.9509 457.44 53.918 453.886 71.8107Z" fill="white"/>
<path d="M386.936 33.102C386.883 51.3409 374.264 66.1372 358.712 66.1106C343.214 66.0507 330.622 51.2344 330.668 32.9621C330.708 14.7365 343.327 -0.046503 358.879 0.000109931C374.424 0.0267459 386.976 14.8363 386.936 33.102Z" fill="white"/>
<path d="M313.4 35.2328C318.363 52.8392 310.26 70.4589 295.316 74.6741C280.339 78.8559 264.213 68.0217 259.229 50.4486C254.313 32.8889 262.389 15.2292 277.353 11.0407C292.343 6.85887 308.45 17.6797 313.406 35.2328H313.4Z" fill="white"/>
<path d="M266.985 93.6722C277.293 108.741 275.289 128.046 262.489 136.796C249.657 145.532 230.878 140.392 220.524 125.316C210.189 110.266 212.22 90.9753 225.02 82.2387C237.866 73.5021 256.611 78.6029 266.985 93.6788V93.6722Z" fill="white"/>
<path d="M345.679 252.676C343.615 252.676 341.784 251.317 341.25 249.253C340.662 246.816 342.152 244.392 344.577 243.806L389.876 232.792C392.314 232.199 394.752 233.678 395.367 236.088C395.941 238.532 394.445 240.949 392.02 241.555L346.741 252.576C346.354 252.642 346.026 252.676 345.679 252.676Z" fill="white"/>
<path d="M349.64 267.079C347.583 267.079 345.752 265.701 345.238 263.65C344.65 261.232 346.126 258.789 348.578 258.196L393.844 247.169C396.275 246.583 398.727 248.034 399.315 250.491C399.916 252.902 398.413 255.359 396.008 255.952L350.702 266.952C350.355 267.052 350.008 267.079 349.647 267.079H349.64Z" fill="white"/>
<path d="M413.023 135.697C404.211 99.6719 367.764 77.604 331.597 86.3739C295.49 95.1705 273.318 131.482 282.143 167.514C288.716 194.416 310.694 213.561 336.507 217.862L340.816 235.542C341.156 236.907 342.506 237.746 343.822 237.433L388.867 226.492C390.196 226.16 390.984 224.788 390.637 223.403L386.502 206.389C408.387 190.94 419.743 163.259 413.023 135.697ZM358.933 116.346C366.374 113.33 374.197 110.852 382.34 109.048C387.998 121.793 391.619 135.524 393.049 149.927C389.348 150.1 385.714 150.453 382.18 151.019C377.17 137.855 369.267 126.088 358.933 116.346ZM388.787 172.302C385.36 172.102 382.501 168.613 381.251 163.938C379.982 159.21 381.973 155.341 386.783 154.948C391.572 154.549 395.16 158.344 395.12 163.665C394.959 168.859 392.18 172.461 388.787 172.302Z" fill="white"/>
</svg>
