<svg width="170" height="47" viewBox="0 0 170 47" fill="none" xmlns="http://www.w3.org/2000/svg">
<path d="M167.026 21.7775C165.409 21.7775 164.091 20.4716 164.091 18.8651C164.091 17.2585 165.409 15.9492 167.026 15.9492C168.642 15.9492 169.962 17.2563 169.962 18.8651C169.962 20.4738 168.648 21.7775 167.026 21.7775ZM167.026 16.5279C165.734 16.5279 164.672 17.5749 164.672 18.8651C164.672 20.1552 165.734 21.2034 167.026 21.2034C168.318 21.2034 169.384 20.1541 169.384 18.8651C169.384 17.576 168.329 16.5279 167.026 16.5279Z" fill="#00B3EC"/>
<path d="M167.506 20.2678L166.869 19.3255H166.352V20.2678H165.706V17.3238H167.064C167.415 17.3238 167.69 17.4094 167.88 17.5794C168.08 17.7516 168.178 17.9903 168.178 18.2943V18.3033C168.178 18.5408 168.12 18.7356 168.003 18.8831C167.891 19.0373 167.734 19.1454 167.544 19.2152L168.268 20.2678H167.506ZM167.517 18.3281C167.517 18.1907 167.476 18.0838 167.383 18.0128C167.293 17.9419 167.17 17.9093 167.004 17.9093H166.351V18.7514H167.012C167.178 18.7514 167.301 18.7187 167.389 18.6422C167.475 18.5667 167.516 18.4654 167.516 18.3359V18.3281H167.517Z" fill="#00B3EC"/>
<path d="M11.8296 31.1599C11.5061 31.8332 11.0576 32.3983 10.4899 32.8565C9.92218 33.308 9.25797 33.6491 8.49158 33.8765C7.732 34.1028 6.91793 34.2131 6.04367 34.2131H3.4493V38.8356H0.0385742V23.4471H6.37634C7.30964 23.4471 8.14074 23.5754 8.87194 23.8321C9.60313 24.0899 10.2231 24.4502 10.7317 24.9196C11.2449 25.3835 11.6355 25.943 11.9091 26.5993C12.1827 27.2523 12.3213 27.9728 12.3213 28.762V28.8126C12.3213 29.7043 12.1544 30.4878 11.8308 31.1599H11.8296ZM8.85831 28.8284C8.85831 28.0674 8.61193 27.4898 8.11804 27.0935C7.62073 26.6984 6.94404 26.5014 6.08795 26.5014H3.4493V31.2038H6.15381C7.01443 31.2038 7.67523 30.9809 8.15323 30.5351C8.62215 30.0882 8.85945 29.5332 8.85945 28.8701V28.8273L8.85831 28.8284Z" fill="#00B3EC"/>
<path d="M21.4531 38.8345V37.5567C21.0387 38.0104 20.5437 38.3774 19.9623 38.6409C19.389 38.9122 18.6862 39.0507 17.8585 39.0507C17.2976 39.0507 16.7708 38.9752 16.2757 38.8176C15.7796 38.6656 15.3481 38.4337 14.9802 38.1298C14.6078 37.819 14.3194 37.4442 14.1037 36.9995C13.8914 36.5458 13.7847 36.0335 13.7847 35.4481V35.4008C13.7847 34.7602 13.905 34.2007 14.1378 33.7346C14.3705 33.2629 14.7009 32.8745 15.1244 32.5706C15.5423 32.261 16.0475 32.0291 16.63 31.8782C17.217 31.7217 17.8607 31.6418 18.5715 31.6418C19.1767 31.6418 19.7057 31.6913 20.1542 31.778C20.6073 31.8636 21.0466 31.9795 21.4724 32.1281V31.9289C21.4724 31.2264 21.259 30.6939 20.8309 30.3268C20.4029 29.9598 19.7693 29.7729 18.9269 29.7729C18.2752 29.7729 17.704 29.8337 17.209 29.9429C16.7094 30.0521 16.1894 30.2064 15.6456 30.4135L14.802 27.8602C15.4526 27.5889 16.1327 27.3547 16.8434 27.1847C17.5508 27.0035 18.4103 26.9179 19.4151 26.9179C21.2612 26.9179 22.6067 27.3694 23.448 28.2599C24.2916 29.1538 24.7128 30.3989 24.7128 31.9975V38.8368H21.4554L21.4531 38.8345ZM21.5167 34.0859C21.2215 33.9519 20.8945 33.8506 20.5312 33.7684C20.1701 33.6874 19.7841 33.6446 19.3674 33.6446C18.6464 33.6446 18.0753 33.7853 17.6598 34.0589C17.2499 34.3414 17.041 34.7422 17.041 35.2714V35.3164C17.041 35.7701 17.2124 36.118 17.5485 36.3713C17.8891 36.6189 18.3331 36.7439 18.8849 36.7439C19.6796 36.7439 20.32 36.5491 20.798 36.1731C21.2794 35.7892 21.5178 35.2916 21.5178 34.6781V34.0848L21.5167 34.0859Z" fill="#00B3EC"/>
<path d="M40.957 38.9201H37.9266L35.6354 31.6913L33.3169 38.9201H30.299L26.6396 27.0474H30.0561L31.9635 34.1962L34.1991 27.0023H37.108L39.3697 34.2131L41.3226 27.0474H44.6674L40.9604 38.9201H40.957Z" fill="#00B3EC"/>
<path d="M73.813 38.8345V23.4459H77.2282V38.8345H73.813Z" fill="#00B3EC"/>
<path d="M88.2688 38.8345V32.2756C88.2688 31.4842 88.0951 30.8909 87.7352 30.4878C87.3821 30.0882 86.8814 29.8866 86.2319 29.8866C85.5825 29.8866 85.067 30.0882 84.6912 30.4878C84.3131 30.892 84.1224 31.4853 84.1224 32.2756V38.8345H80.7571V27.0474H84.1224V28.7316C84.3188 28.4839 84.5289 28.2464 84.7548 28.0144C84.9864 27.7814 85.2408 27.5866 85.5212 27.4031C85.8016 27.2275 86.1127 27.0868 86.4534 26.9843C86.7917 26.8796 87.1766 26.8312 87.6046 26.8312C88.8922 26.8312 89.8857 27.2151 90.5873 27.9931C91.2856 28.7732 91.6398 29.8416 91.6398 31.2038V38.8345H88.2688Z" fill="#00B3EC"/>
<path d="M102.934 36.9499C102.704 37.4284 102.384 37.8202 101.969 38.1309C101.558 38.4337 101.074 38.6668 100.519 38.8188C99.9635 38.9764 99.3674 39.0518 98.7327 39.0518C97.8902 39.0518 97.0285 38.91 96.1519 38.6251C95.2709 38.3403 94.4318 37.8877 93.6348 37.2697L95.0779 35.0721C95.7296 35.5393 96.3733 35.8939 97.0182 36.1292C97.6597 36.3634 98.2604 36.4794 98.8258 36.4794C99.3117 36.4794 99.6717 36.4006 99.8999 36.2351C100.128 36.0774 100.247 35.8635 100.247 35.6035V35.5596C100.247 35.384 100.176 35.2286 100.043 35.0924C99.9078 34.9663 99.7262 34.8515 99.5025 34.7558C99.2697 34.6612 99.0075 34.5677 98.7123 34.4799C98.4182 34.3887 98.1048 34.2964 97.7824 34.1962C97.3668 34.0746 96.9478 33.9339 96.53 33.7684C96.1065 33.5951 95.7307 33.3789 95.3844 33.1087C95.0529 32.8351 94.7758 32.5019 94.5556 32.1056C94.3444 31.7093 94.2354 31.2264 94.2354 30.6533V30.6094C94.2354 30.0105 94.3523 29.4769 94.576 29.013C94.8065 28.5548 95.1142 28.1642 95.5082 27.8445C95.8999 27.5202 96.354 27.2782 96.882 27.1149C97.4077 26.954 97.9731 26.874 98.5794 26.874C99.3322 26.874 100.101 26.9967 100.874 27.2388C101.651 27.4808 102.361 27.8152 103.013 28.2351L101.73 30.5475C101.136 30.2064 100.555 29.9441 99.9964 29.7448C99.4389 29.5433 98.9416 29.4465 98.5124 29.4465C98.0832 29.4465 97.7858 29.523 97.5803 29.6795C97.3748 29.8349 97.276 30.0285 97.276 30.2627V30.3043C97.276 30.4676 97.3373 30.6072 97.4724 30.7321C97.6075 30.8537 97.7824 30.9753 98.0038 31.0834C98.2263 31.1937 98.4795 31.304 98.7645 31.4009C99.0574 31.5078 99.364 31.6114 99.6887 31.7116C100.1 31.8433 100.523 32.002 100.952 32.1867C101.38 32.3679 101.766 32.5942 102.101 32.8599C102.444 33.12 102.729 33.4431 102.95 33.8247C103.169 34.2041 103.283 34.6646 103.283 35.2095V35.2511C103.283 35.9142 103.162 36.4771 102.935 36.9533L102.934 36.9499Z" fill="#00B3EC"/>
<path d="M117.721 35.5686C117.417 36.3251 117.024 36.9623 116.519 37.4802C116.03 38.0037 115.462 38.391 114.808 38.6589C114.152 38.9201 113.476 39.0518 112.765 39.0518C111.862 39.0518 111.123 38.8773 110.542 38.5294C109.957 38.1804 109.466 37.7729 109.064 37.3079V42.3515H105.693V27.0496H109.064V28.7282C109.476 28.1766 109.976 27.7274 110.562 27.3705C111.146 27.0125 111.883 26.8335 112.765 26.8335C113.462 26.8335 114.135 26.9629 114.786 27.2264C115.439 27.4921 116.013 27.8794 116.51 28.4028C117.016 28.9218 117.417 29.5635 117.721 30.3122C118.025 31.0676 118.174 31.9379 118.174 32.9241V32.9657C118.174 33.9452 118.025 34.8143 117.721 35.5708V35.5686ZM114.806 32.9218C114.806 32.431 114.728 31.9851 114.575 31.5787C114.422 31.1712 114.209 30.8233 113.944 30.5374C113.677 30.2537 113.368 30.0319 113.02 29.8731C112.672 29.7234 112.302 29.6435 111.899 29.6435C111.496 29.6435 111.133 29.7245 110.78 29.8731C110.436 30.0319 110.133 30.2537 109.875 30.5374C109.61 30.8233 109.408 31.1723 109.251 31.5787C109.094 31.9851 109.015 32.431 109.015 32.9218V32.9635C109.015 33.4498 109.094 33.8968 109.251 34.3054C109.408 34.7073 109.609 35.0575 109.875 35.3423C110.133 35.6327 110.436 35.8545 110.78 36.0054C111.132 36.163 111.496 36.235 111.899 36.235C112.302 36.235 112.672 36.1619 113.02 36.0054C113.368 35.8556 113.676 35.6339 113.944 35.3423C114.21 35.0575 114.422 34.7107 114.575 34.3133C114.727 33.9148 114.806 33.4656 114.806 32.9646V32.9229V32.9218Z" fill="#00B3EC"/>
<path d="M120.723 25.1774V22.2087H124.276V25.1774H120.723ZM120.815 38.8345V27.0474H124.185V38.8345H120.815Z" fill="#00B3EC"/>
<path d="M134.342 30.3268C133.216 30.3268 132.325 30.6646 131.686 31.3367C131.04 32.0088 130.721 33.0569 130.721 34.481V38.8356H127.355V27.0485H130.721V29.4239C131.058 28.6201 131.527 27.9739 132.119 27.4909C132.708 27.0035 133.509 26.7873 134.513 26.8324V30.3268H134.341H134.342Z" fill="#00B3EC"/>
<path d="M147.693 33.6874C147.684 33.8044 147.673 33.9429 147.666 34.1039H139.395C139.552 34.8717 139.89 35.4447 140.397 35.8343C140.906 36.2193 141.539 36.4152 142.295 36.4152C142.859 36.4152 143.359 36.3206 143.799 36.1303C144.247 35.9412 144.7 35.6327 145.179 35.2072L147.107 36.8981C146.542 37.5883 145.863 38.1264 145.064 38.5159C144.272 38.9054 143.33 39.0946 142.242 39.0946C141.367 39.0946 140.539 38.9527 139.779 38.6589C139.019 38.3639 138.354 37.9463 137.809 37.4047C137.25 36.8621 136.825 36.2193 136.507 35.4763C136.198 34.7434 136.047 33.9148 136.047 33.0085V32.9646C136.047 32.1281 136.19 31.3378 136.478 30.5903C136.767 29.8439 137.171 29.1909 137.683 28.6325C138.201 28.0741 138.819 27.6373 139.539 27.3142C140.253 26.99 141.051 26.8324 141.924 26.8324C142.909 26.8324 143.767 27.0035 144.49 27.3547C145.213 27.7093 145.815 28.1833 146.298 28.7766C146.776 29.3722 147.135 30.051 147.366 30.8199C147.585 31.5922 147.7 32.3927 147.7 33.2258V33.2674C147.7 33.4363 147.7 33.5714 147.694 33.6874H147.693ZM143.627 30.2019C143.195 29.7437 142.633 29.5095 141.923 29.5095C141.213 29.5095 140.64 29.7369 140.203 30.1929C139.762 30.6499 139.481 31.2556 139.342 32.02H144.423C144.315 31.2714 144.054 30.6635 143.626 30.2007L143.627 30.2019Z" fill="#00B3EC"/>
<path d="M158.789 38.8345V37.1548C158.374 37.7053 157.878 38.1635 157.293 38.5193C156.709 38.8762 155.974 39.0507 155.086 39.0507C154.39 39.0507 153.719 38.919 153.066 38.6578C152.419 38.3898 151.842 38.0026 151.336 37.4791C150.835 36.9612 150.433 36.324 150.133 35.5674C149.828 34.8109 149.677 33.9418 149.677 32.9623V32.9207C149.677 31.9345 149.828 31.0642 150.133 30.3088C150.433 29.559 150.836 28.9173 151.331 28.3995C151.823 27.876 152.398 27.4887 153.051 27.223C153.697 26.9596 154.378 26.8301 155.087 26.8301C155.987 26.8301 156.731 27.0012 157.317 27.348C157.902 27.7026 158.39 28.1045 158.789 28.5695V22.7851H162.156V38.8323H158.789V38.8345ZM158.831 32.9218C158.831 32.431 158.752 31.9851 158.601 31.5787C158.449 31.1712 158.234 30.8233 157.976 30.5374C157.716 30.2537 157.421 30.0319 157.069 29.8731C156.722 29.7234 156.348 29.6435 155.951 29.6435C155.554 29.6435 155.177 29.7245 154.83 29.8731C154.483 30.0319 154.175 30.2537 153.914 30.5374C153.644 30.8233 153.433 31.1723 153.282 31.5663C153.125 31.9638 153.051 32.4186 153.051 32.9218V32.9635C153.051 33.4498 153.125 33.8968 153.282 34.3054C153.433 34.7073 153.645 35.0575 153.914 35.3423C154.175 35.6327 154.482 35.8545 154.83 36.0054C155.177 36.163 155.55 36.235 155.951 36.235C156.352 36.235 156.722 36.1619 157.069 36.0054C157.421 35.8557 157.716 35.6339 157.976 35.3423C158.234 35.0575 158.449 34.7073 158.601 34.3054C158.752 33.8979 158.831 33.4498 158.831 32.9635V32.9218Z" fill="#00B3EC"/>
<path d="M64.1859 46.9538C65.05 46.7433 65.5711 45.8888 65.3599 45.0377L62.2546 45.7897C62.4658 46.6408 63.3287 47.1632 64.1848 46.9538H64.1859Z" fill="#E40B16"/>
<path d="M77.1624 12.1407C76.564 15.1646 73.9731 17.2101 71.3821 16.7024C68.7945 16.1947 67.1811 13.3273 67.784 10.2988C68.3824 7.27269 70.9802 5.23049 73.5666 5.73823C76.1564 6.24709 77.7664 9.11563 77.1624 12.1407Z" fill="#00B3EC"/>
<path d="M65.7837 5.59637C65.7746 8.67994 63.6298 11.1815 60.9866 11.177C58.3525 11.1668 56.2123 8.66193 56.2202 5.57273C56.227 2.49142 58.3718 -0.00786202 61.015 1.85855e-05C63.6571 0.00452179 65.7905 2.5083 65.7837 5.59637Z" fill="#00B3EC"/>
<path d="M53.2851 5.95663C54.1287 8.93325 52.7515 11.9121 50.2116 12.6248C47.666 13.3318 44.9252 11.5001 44.0782 8.52909C43.2426 5.56035 44.6152 2.57473 47.1585 1.8666C49.7063 1.1596 52.4438 2.98902 53.2862 5.95663H53.2851Z" fill="#00B3EC"/>
<path d="M45.3965 15.8367C47.1484 18.3843 46.8078 21.648 44.6324 23.1273C42.4513 24.6044 39.2597 23.7353 37.4998 21.1865C35.7434 18.6421 36.0885 15.3807 38.2639 13.9037C40.4473 12.4266 43.6332 13.289 45.3965 15.8378V15.8367Z" fill="#00B3EC"/>
<path d="M70.2173 22.9416C68.7198 16.851 62.5251 13.1201 56.378 14.6028C50.2412 16.09 46.4729 22.229 47.9727 28.3207C49.0899 32.8689 52.8254 36.1056 57.2125 36.8328L57.9449 39.8219C58.0028 40.0526 58.2321 40.1945 58.4558 40.1416L66.1118 38.2919C66.3377 38.2356 66.4717 38.0037 66.4126 37.7695L65.7098 34.8931C69.4294 32.2812 71.3596 27.6013 70.2173 22.9416Z" fill="#00B3EC"/>
<path d="M58.7714 42.7185C58.4205 42.7185 58.1094 42.4889 58.0186 42.1399C57.9187 41.7278 58.1719 41.318 58.584 41.219L66.2831 39.3569C66.6976 39.2567 67.112 39.5066 67.2164 39.9142C67.3141 40.3273 67.0598 40.736 66.6476 40.8385L58.9519 42.7016C58.8861 42.7129 58.8304 42.7185 58.7714 42.7185Z" fill="#E40B16"/>
<path d="M59.4447 45.1536C59.095 45.1536 58.7839 44.9206 58.6965 44.5739C58.5966 44.1652 58.8475 43.752 59.2642 43.6518L66.9576 41.7875C67.3709 41.6884 67.7876 41.9338 67.8875 42.3493C67.9897 42.7568 67.7342 43.1722 67.3255 43.2724L59.6252 45.1323C59.5662 45.1491 59.5071 45.1536 59.4458 45.1536H59.4447Z" fill="#E40B16"/>
<path d="M64.9751 25.5321C64.1235 23.3064 62.7804 21.3171 61.0239 19.67C62.2888 19.16 63.6183 18.7412 65.0023 18.4361C65.964 20.5909 66.5794 22.9123 66.8224 25.3474C66.1934 25.3767 65.5757 25.4364 64.9751 25.5321ZM64.8173 27.7161C64.6015 26.9168 64.9399 26.2627 65.7574 26.1963C66.5715 26.1287 67.1812 26.7704 67.1744 27.67C67.1471 28.5481 66.6748 29.1571 66.098 29.1301C65.5155 29.0963 65.0296 28.5064 64.8173 27.7161Z" fill="white"/>
</svg>
